<svg width="58" height="58" xmlns="http://www.w3.org/2000/svg" xml:space="preserve" version="1.1">

 <g>
  <title>Layer 1</title>
  <g stroke="null" id="svg_1">
   <path stroke="null" id="svg_2" fill="#2CB742" d="m1.92308,56.07692l4.59108,-13.77231c-2.32959,-3.91825 -3.67065,-8.49092 -3.67065,-13.38021c0,-14.48748 11.74462,-26.2321 26.2321,-26.2321s26.2321,11.74462 26.2321,26.2321s-11.74462,26.2321 -26.2321,26.2321c-4.40791,0 -8.55903,-1.09254 -12.20483,-3.01255l-14.94769,3.93297z"/>
   <path stroke="null" id="svg_3" fill="#FFFFFF" d="m45.81167,37.65463c-1.21128,-2.2891 -5.6781,-4.90678 -5.6781,-4.90678c-1.01063,-0.57619 -2.23019,-0.64062 -2.80637,0.38658c0,0 -1.45151,1.74052 -1.8206,1.99088c-1.68622,1.14225 -3.24818,1.09807 -4.82486,-0.47862l-3.66421,-3.66421l-3.66421,-3.66421c-1.57669,-1.57669 -1.62087,-3.13865 -0.47862,-4.82486c0.25036,-0.36909 1.99088,-1.8206 1.99088,-1.8206c1.02719,-0.57711 0.96276,-1.79575 0.38658,-2.80637c0,0 -2.61769,-4.46682 -4.90678,-5.6781c-0.97381,-0.51544 -2.16944,-0.33503 -2.94812,0.44364l-1.61811,1.61811c-5.13321,5.13321 -2.60572,10.9282 2.52749,16.06141l4.6914,4.6914l4.6914,4.6914c5.13321,5.13321 10.9282,7.66069 16.06141,2.52749l1.61811,-1.61811c0.77868,-0.78052 0.95816,-1.97615 0.44272,-2.94904z"/>
  </g>
  <g id="svg_4"/>
  <g id="svg_5"/>
  <g id="svg_6"/>
  <g id="svg_7"/>
  <g id="svg_8"/>
  <g id="svg_9"/>
  <g id="svg_10"/>
  <g id="svg_11"/>
  <g id="svg_12"/>
  <g id="svg_13"/>
  <g id="svg_14"/>
  <g id="svg_15"/>
  <g id="svg_16"/>
  <g id="svg_17"/>
  <g id="svg_18"/>
 </g>
</svg>