<svg width="40" height="40" viewBox="0 0 80 80" fill="none" xmlns="http://www.w3.org/2000/svg">
<g id="iconspace_Like_25px">
<path id="Path" d="M21.9385 38.6132C21.3176 39.2419 20.3046 39.2483 19.6758 38.6274C19.0471 38.0065 19.0407 36.9935 19.6616 36.3647C27.1878 28.7432 31.6851 19.4327 33.171 8.38236C33.2539 7.76606 33.6864 7.2536 34.28 7.06829C41.4832 4.81955 45.4888 8.31478 45.4207 16.5179C45.4071 18.1496 45.3324 19.602 45.173 21.8266C44.8074 26.9306 44.836 28.3016 45.4543 29.3246C46.0992 30.3916 47.9834 30.7194 52.2152 29.9089C53.5099 29.6609 54.808 29.38 56.2451 29.0428C56.8818 28.8934 61.4304 27.7737 62.588 27.5216C64.7749 27.0452 66.337 26.8446 67.6922 26.9284C71.267 27.1496 73.1401 29.4421 73.4744 33.9802C74.0836 42.2466 72.1957 58.9007 70.3213 65.0059C68.4434 71.1227 65.2318 73.3868 57.3196 73.5272C52.1287 73.6192 44.1413 73.6192 33.3277 73.527C27.4671 73.3895 22.8156 71.0808 19.5163 66.6461C18.9889 65.9371 19.136 64.9348 19.845 64.4074C20.554 63.8799 21.5563 64.0271 22.0838 64.736C24.7829 68.3641 28.5082 70.213 33.3789 70.3275C44.1428 70.4191 52.1061 70.4191 57.2629 70.3277C63.8292 70.2112 65.8031 68.8196 67.2623 64.0668C69.0203 58.3406 70.863 42.0848 70.2831 34.2154C70.0572 31.1496 69.3096 30.2346 67.4945 30.1223C66.5042 30.061 65.19 30.2299 63.2691 30.6483C62.1616 30.8895 57.6499 32.0001 56.9761 32.1582C55.499 32.5048 54.159 32.7948 52.8171 33.0518C47.4063 34.0881 44.2639 33.5413 42.7157 30.9799C41.5783 29.0983 41.548 27.6445 41.9812 21.5979C42.1361 19.4354 42.2079 18.0401 42.2208 16.4913C42.2685 10.7482 40.4966 8.81735 36.1924 9.85598C34.4747 21.1337 29.7182 30.735 21.9385 38.6132Z" fill="#2E2E2E"/>
<path id="Path_2" fill-rule="evenodd" clip-rule="evenodd" d="M17.6 28.8H11.2C8.54906 28.8 6.40002 30.9491 6.40002 33.6V68.8C6.40002 71.451 8.54906 73.6 11.2 73.6H17.6C20.251 73.6 22.4 71.451 22.4 68.8V33.6C22.4 30.9491 20.251 28.8 17.6 28.8ZM9.60002 33.6C9.60002 32.7164 10.3164 32 11.2 32H17.6C18.4837 32 19.2 32.7164 19.2 33.6V68.8C19.2 69.6837 18.4837 70.4001 17.6 70.4001H11.2C10.3164 70.4001 9.60002 69.6837 9.60002 68.8V33.6Z" fill="#2E2E2E"/>
</g>
</svg>
